<svg xmlns="http://www.w3.org/2000/svg" xmlns:xlink="http://www.w3.org/1999/xlink" viewBox="0,0,256,256" width="30px" height="30px"><g transform=""><g fill="#FFE53D" fill-rule="nonzero" stroke="none" stroke-width="1" stroke-linecap="butt" stroke-linejoin="none" stroke-miterlimit="10" stroke-dasharray="" stroke-dashoffset="0" font-family="none" font-weight="none" font-size="none" text-anchor="none" style="mix-blend-mode: normal"><path transform="translate(-52.3305,143.77687) rotate(-50) scale(8.53333,8.53333)" d="M26.94922,14h3.05078l-4,6l-4,-6h2.95117c-0.50018,-5.06207 -4.75461,-9 -9.95117,-9c-2.4834,0 -4.74593,0.90009 -6.49414,2.39453c-0.26947,0.24712 -0.65232,0.32748 -0.99842,0.20959c-0.3461,-0.1179 -0.60027,-0.41526 -0.66286,-0.77549c-0.06258,-0.36023 0.0764,-0.7259 0.36245,-0.95363c2.09579,-1.79156 4.82437,-2.875 7.79297,-2.875c6.27784,0 11.43793,4.85166 11.94922,11zM8,16h-2.95117c0.50018,5.06207 4.75461,9 9.95117,9c2.4834,0 4.74593,-0.90009 6.49414,-2.39453c0.26947,-0.24712 0.65232,-0.32749 0.99842,-0.20959c0.3461,0.1179 0.60028,0.41526 0.66286,0.7755c0.06258,0.36023 -0.0764,0.7259 -0.36245,0.95363c-2.09579,1.79156 -4.82437,2.875 -7.79297,2.875c-6.27784,0 -11.43792,-4.85166 -11.94922,-11h-3.05078l4,-6z" id="strokeMainSVG" stroke="#FFE53D" stroke-linejoin="round"></path><g transform="translate(-52.3305,143.77687) rotate(-50) scale(8.53333,8.53333)" stroke="none" stroke-linejoin="miter"><path d="M15,3c-2.9686,0 -5.69718,1.08344 -7.79297,2.875c-0.28605,0.22772 -0.42503,0.59339 -0.36245,0.95363c0.06258,0.36023 0.31676,0.6576 0.66286,0.77549c0.3461,0.1179 0.72895,0.03753 0.99842,-0.20959c1.74821,-1.49444 4.01074,-2.39453 6.49414,-2.39453c5.19656,0 9.45099,3.93793 9.95117,9h-2.95117l4,6l4,-6h-3.05078c-0.51129,-6.14834 -5.67138,-11 -11.94922,-11zM4,10l-4,6h3.05078c0.51129,6.14834 5.67138,11 11.94922,11c2.9686,0 5.69718,-1.08344 7.79297,-2.875c0.28605,-0.22772 0.42504,-0.59339 0.36245,-0.95363c-0.06258,-0.36023 -0.31676,-0.6576 -0.66286,-0.7755c-0.3461,-0.1179 -0.72895,-0.03753 -0.99842,0.20959c-1.74821,1.49444 -4.01074,2.39453 -6.49414,2.39453c-5.19656,0 -9.45099,-3.93793 -9.95117,-9h2.95117z"></path></g></g></g></svg>